<?xml version="1.0" encoding="utf-8"?>
<!-- Generator: Adobe Illustrator 23.0.4, SVG Export Plug-In . SVG Version: 6.00 Build 0)  -->
<svg version="1.1" id="Layer_1" xmlns="http://www.w3.org/2000/svg" xmlns:xlink="http://www.w3.org/1999/xlink" x="0px" y="0px"
	 viewBox="0 0 841.9 161.1" style="enable-background:new 0 0 841.9 161.1;" xml:space="preserve">
<style type="text/css">
	.st0{fill:#878787;}
	.st1{fill:#00CC00;}
</style>
<g>
	<g>
		<path class="st0" d="M225.7,125.7c0.8,0,1.4,0.3,1.7,1l6.2,8.9c0.3,0.6,0.5,1.1,0.5,1.7c0,1-0.5,1.9-1.7,2.7
			c-12.8,9.5-24,13.5-36.4,13.5c-22,0.4-39-16.8-38.6-38.2c0-3.2,0.3-6.4,1-9.5c1.9-8.7,5.6-16.7,11.3-24.1
			c5.6-7.3,12.5-13.1,20.6-17.4c8.1-4.3,16.7-6.5,25.5-6.5c18.6-0.2,36.3,13.3,35.9,37.9c0,3-0.3,6.3-0.8,10c-1.7,7.5-3,7.4-9,7.5
			h-64.6c0.3,13.2,8.1,22.7,21.4,22.7c9.2,0,17.6-3.1,25.3-9.4C224.4,125.9,225.1,125.7,225.7,125.7z M181.7,95.6h52.8
			c-0.6-11.4-9.3-20.1-22.4-20.1C200,75.5,188.1,84.2,181.7,95.6z"/>
		<path class="st0" d="M280.3,34.6c0.5-2.1,1.7-3,3.6-3h15.3c1.6,0,2.4,0.7,2.4,2c0,0.2-0.1,0.5-0.2,1.1l-7.5,35.1
			c9.4-7.5,20.4-11.9,31.3-11.9c22.5-0.3,36.5,16.7,36.3,37.3c0,3.4-0.4,7-1.1,10.6c-5.5,27.4-30.6,48.3-55.7,47.8
			c-10.6,0-19.6-4.6-25.9-12.5l-3,6.8c-1.1,2.4-2.4,4-4.9,4h-12.5c-1.7,0-2.5-0.7-2.5-2c0-0.2,0.1-0.5,0.2-1.1L280.3,34.6z
			 M284.2,111.6c0,13.2,9.8,23,23.3,23c15.5,0.3,30-13.2,33.1-29c0.6-3,0.9-5.9,0.9-8.6c0-12.7-6.8-21-21-21
			c-15.4-0.4-32.5,13.8-35.6,29.6C284.4,107.6,284.2,109.6,284.2,111.6z"/>
		<path class="st0" d="M433.8,125.7c0.8,0,1.3,0.3,1.5,0.8l6.2,11.3c0.2,0.4,0.3,0.8,0.3,1.4c0,1.1-0.6,2.1-1.7,2.9
			c-4.5,3.3-9.7,6-15.4,8.2c-5.7,2.2-11.3,3.3-16.9,3.3c-22.7,0.3-40.1-16.1-39.7-38c0-3.5,0.4-6.8,1.1-10.1
			c1.8-8.7,5.7-16.7,11.6-24c5.9-7.3,12.9-13.1,21.1-17.3c8.2-4.3,16.6-6.4,25-6.4c12.2,0,21.1,3.7,28.6,11c0.5,0.5,0.8,1.1,0.8,1.6
			s-0.2,1.1-0.8,1.7l-9.1,10.9c-0.5,0.5-1.1,0.8-2,0.8c-0.6,0-1.1-0.2-1.5-0.5c-5.4-5.1-11.5-6.8-19-6.8
			c-13.1-0.3-31.5,12.9-34.5,29.1c-0.6,2.8-0.9,5.5-0.9,8.1c0,12.8,7.7,21.8,21.7,21.8c5.2,0,10.7-2.2,14.4-4.4
			c1.8-1.1,4.2-2.6,7.1-4.6C432.3,125.9,433,125.7,433.8,125.7z"/>
		<path class="st0" d="M521.1,103.8c0.8-3.5,1.1-6.8,1.1-10.1c0-9.7-4-15.8-13.2-15.8c-11.1-0.2-23.3,9.2-26,22.7l-10.3,48
			c-0.4,1.9-1.6,3.2-3.6,3.2h-15.1c-1.7,0-2.5-0.8-2.5-2.2c0-0.4,0-0.8,0.1-1l24.3-113.9c0.5-2.1,1.7-3.2,3.7-3.2h15.1
			c1.5,0,2.4,0.9,2.4,2.4c0,0.4,0,0.6-0.1,0.8l-7.4,34.7c8.3-7.3,16.6-11.3,26-11.3c21.3-0.2,28.7,15.5,28.6,31.6
			c0,3.6-0.4,7.3-1.1,11L533,148.6c-0.4,1.9-1.6,3.2-3.6,3.2h-15.1c-1.7,0-2.5-0.7-2.5-2.1c0-0.2,0.1-0.5,0.2-1.1L521.1,103.8z"/>
		<path class="st0" d="M620.2,125.7c0.8,0,1.4,0.3,1.7,1l6.2,8.9c0.3,0.6,0.5,1.1,0.5,1.7c0,1-0.5,1.9-1.7,2.7
			c-12.8,9.5-24,13.5-36.4,13.5c-22,0.4-39-16.8-38.6-38.2c0-3.2,0.3-6.4,1-9.5c1.9-8.7,5.6-16.7,11.3-24.1
			c5.6-7.3,12.5-13.1,20.6-17.4c8.1-4.3,16.7-6.5,25.5-6.5c18.6-0.2,36.3,13.3,35.9,37.9c0,3-0.3,6.3-0.8,10c-1.7,7.5-3,7.4-9,7.5
			h-64.6c0.3,13.2,8.1,22.7,21.4,22.7c9.2,0,17.6-3.1,25.3-9.4C618.8,125.9,619.5,125.7,620.2,125.7z M576.2,95.6H629
			c-0.6-11.4-9.3-20.1-22.4-20.1C594.5,75.5,582.5,84.2,576.2,95.6z"/>
		<path class="st0" d="M719.9,125.7c0.8,0,1.3,0.3,1.5,0.8l6.2,11.3c0.2,0.4,0.3,0.8,0.3,1.4c0,1.1-0.6,2.1-1.7,2.9
			c-4.5,3.3-9.7,6-15.4,8.2c-5.7,2.2-11.3,3.3-16.9,3.3c-22.7,0.3-40.1-16.1-39.7-38c0-3.5,0.4-6.8,1.1-10.1
			c1.8-8.7,5.7-16.7,11.6-24c5.9-7.3,12.9-13.1,21.1-17.3s16.6-6.4,25-6.4c12.2,0,21.1,3.7,28.6,11c0.5,0.5,0.8,1.1,0.8,1.6
			s-0.2,1.1-0.8,1.7l-9.1,10.9c-0.5,0.5-1.1,0.8-2,0.8c-0.6,0-1.1-0.2-1.5-0.5c-5.4-5.1-11.5-6.8-19-6.8
			c-13.1-0.3-31.5,12.9-34.5,29.1c-0.6,2.8-0.9,5.5-0.9,8.1c0,12.8,7.7,21.8,21.7,21.8c5.2,0,10.7-2.2,14.4-4.4
			c1.8-1.1,4.2-2.6,7.1-4.6C718.4,125.9,719.1,125.7,719.9,125.7z"/>
		<path class="st0" d="M818.4,146.9c0.3,0.5,0.5,1.1,0.5,1.7c0,1.7-1.6,3.3-3.4,3.3h-15.2c-1.6,0-2.4-0.6-3.5-2.7l-21-37.6
			l-10.9,9.1l-6,28.2c-0.5,2-1.6,3-3.4,3h-15.4c-1.6,0-2.4-0.7-2.4-2c0-0.2,0.1-0.5,0.2-1L762,34.5c0.5-2,1.6-3,3.5-3h15.4
			c1.4,0,2.2,0.7,2.2,2c0,0.4,0,0.8-0.1,1l-12,57.3l36.9-31.2c2.2-1.6,3.3-2,5.1-2h18.5c1.7,0,2.7,1.1,2.7,2.4
			c0,0.9-0.4,1.7-1.1,2.4l-41.7,35.4L818.4,146.9z"/>
	</g>
	<g>
		<path class="st1" d="M71,100.8l-29.5,49.1c-1.5,2.4-3.3,3.7-5.7,3.7H19.4c-2.2,0-3.7-1.2-4.2-3.7l-8.3-45.4
			c-0.2-1.3,0-2.7,0.7-3.9l15.7-25.9c1.4-2.3,4.9-1.6,5.3,1l6.4,39.4L93.7,12.6c1.3-2.4,3.1-3.7,5.5-3.7h23.5c1.6,0,2.5,0.8,2.5,2.1
			c0,0.7-0.2,1.4-0.7,2.1L91,68.1L71,100.8z"/>
		<path class="st1" d="M142,100.8l-29.5,49.1c-1.5,2.4-3.3,3.7-5.7,3.7H90.3c-2.2,0-3.7-1.2-4.2-3.7l-8.3-45.4
			c-0.2-1.3,0-2.7,0.7-3.9l15.7-25.9c1.4-2.3,4.9-1.6,5.3,1l6.4,39.4l58.6-102.6c1.3-2.4,3.1-3.7,5.5-3.7h23.5
			c1.6,0,2.5,0.8,2.5,2.1c0,0.7-0.2,1.4-0.7,2.1L162,68.1L142,100.8z"/>
	</g>
</g>
</svg>
